<svg width="500" height="500" viewBox="0 0 500 500" fill="none" xmlns="http://www.w3.org/2000/svg">
<path d="M250 500L9.91833e-05 250L500 250L250 500Z" fill="#BD3012"/>
<path d="M250 0L500 250L0 250L250 0Z" fill="#BD3012"/>
<path d="M250 0L500 250L240.909 368.421L250 0Z" fill="#FFFEFE"/>
<path d="M250 500L240.909 368.421L0 250L250 500Z" fill="#531204"/>
<path d="M232.313 377.12L232.276 376.874L232.059 376.755L19.7396 260.26L240.43 368.743L248.618 487.251L232.313 377.12Z" fill="#FCF9F9" stroke="#FCF9F9"/>
<path d="M250.5 486.842V482.674L486.836 262.923L376.919 376.839L250.5 498.823V491.228V486.842Z" fill="#531204" stroke="#531204"/>
<mask id="path-7-inside-1" fill="white">
<path d="M250 0L240.909 368.421L0 250L231.818 350.877L250 0Z"/>
</mask>
<path d="M250 0L240.909 368.421L0 250L231.818 350.877L250 0Z" fill="#531204"/>
<path d="M240.909 368.421L240.468 369.318L241.87 370.008L241.909 368.446L240.909 368.421ZM250 0L251 0.0246678L249.001 -0.0517487L250 0ZM231.818 350.877L231.419 351.794L232.742 352.37L232.817 350.929L231.818 350.877ZM0 250L0.399014 249.083L-0.441143 250.897L0 250ZM241.909 368.446L251 0.0246678L249 -0.0246678L239.909 368.396L241.909 368.446ZM249.001 -0.0517487L230.82 350.825L232.817 350.929L250.999 0.0517487L249.001 -0.0517487ZM232.217 349.96L0.399014 249.083L-0.399014 250.917L231.419 351.794L232.217 349.96ZM-0.441143 250.897L240.468 369.318L241.35 367.524L0.441143 249.103L-0.441143 250.897Z" fill="#531204" mask="url(#path-7-inside-1)"/>
</svg>
